# Blender v2.79 (sub 0) OBJ File: ''
# www.blender.org
mtllib pachołek.mtl
o Cylinder_Cylinder.001
v 0.003768 0.041175 -0.822706
v 0.003768 2.652475 -0.209528
v 0.164448 0.041175 -0.806881
v 0.044823 2.652475 -0.205485
v 0.318954 0.041175 -0.760012
v 0.084301 2.652475 -0.193509
v 0.461347 0.041175 -0.683902
v 0.120683 2.652475 -0.174062
v 0.586155 0.041175 -0.581474
v 0.152572 2.652475 -0.147891
v 0.688583 0.041175 -0.456666
v 0.178743 2.652475 -0.116002
v 0.764693 0.041175 -0.314273
v 0.198190 2.652475 -0.079620
v 0.811562 0.041175 -0.159767
v 0.210166 2.652475 -0.040142
v 0.827388 0.041175 0.000913
v 0.214209 2.652475 0.000913
v 0.811562 0.041175 0.161593
v 0.210166 2.652475 0.041968
v 0.764693 0.041175 0.316098
v 0.198190 2.652475 0.081445
v 0.688583 0.041175 0.458491
v 0.178743 2.652475 0.117827
v 0.586155 0.041175 0.583300
v 0.152572 2.652475 0.149717
v 0.461347 0.041175 0.685727
v 0.120683 2.652475 0.175888
v 0.318954 0.041175 0.761838
v 0.084301 2.652475 0.195334
v 0.164448 0.041175 0.808706
v 0.044823 2.652475 0.207310
v 0.003768 0.041175 0.824532
v 0.003768 2.652475 0.211353
v -0.156912 0.041175 0.808706
v -0.037287 2.652475 0.207310
v -0.311417 0.041175 0.761838
v -0.076764 2.652475 0.195334
v -0.453810 0.041175 0.685727
v -0.113146 2.652475 0.175888
v -0.578619 0.041175 0.583299
v -0.145036 2.652475 0.149717
v -0.681046 0.041175 0.458491
v -0.171207 2.652475 0.117827
v -0.757157 0.041175 0.316098
v -0.190653 2.652475 0.081445
v -0.804025 0.041175 0.161592
v -0.202629 2.652475 0.041967
v -0.819851 0.041175 0.000912
v -0.206672 2.652475 0.000912
v -0.804025 0.041175 -0.159768
v -0.202629 2.652475 -0.040143
v -0.757156 0.041175 -0.314273
v -0.190653 2.652475 -0.079620
v -0.681045 0.041175 -0.456666
v -0.171206 2.652475 -0.116002
v -0.578618 0.041175 -0.581475
v -0.145035 2.652475 -0.147892
v -0.453809 0.041175 -0.683902
v -0.113146 2.652475 -0.174063
v -0.311416 0.041175 -0.760013
v -0.076763 2.652475 -0.193509
v -0.156910 0.041175 -0.806881
v -0.037286 2.652475 -0.205485
v 0.003768 0.484796 -0.718536
v 0.003768 1.007056 -0.595901
v 0.003768 1.529317 -0.473265
v 0.003768 2.051577 -0.350629
v 0.072351 2.051577 -0.343875
v 0.096276 1.529317 -0.464154
v 0.120201 1.007056 -0.584433
v 0.144126 0.484796 -0.704712
v 0.138298 2.051577 -0.323870
v 0.185228 1.529317 -0.437170
v 0.232159 1.007056 -0.550471
v 0.279090 0.484796 -0.663772
v 0.199075 2.051577 -0.291384
v 0.267207 1.529317 -0.393352
v 0.335340 1.007056 -0.495319
v 0.403473 0.484796 -0.597287
v 0.252346 2.051577 -0.247665
v 0.339063 1.529317 -0.334382
v 0.425779 1.007056 -0.421098
v 0.512496 0.484796 -0.507815
v 0.296065 2.051577 -0.194394
v 0.398033 1.529317 -0.262526
v 0.500001 1.007056 -0.330659
v 0.601968 0.484796 -0.398792
v 0.328551 2.051577 -0.133617
v 0.441851 1.529317 -0.180547
v 0.555152 1.007056 -0.227478
v 0.668453 0.484796 -0.274409
v 0.348556 2.051577 -0.067670
v 0.468835 1.529317 -0.091595
v 0.589114 1.007056 -0.115520
v 0.709393 0.484796 -0.139445
v 0.355310 2.051577 0.000913
v 0.477946 1.529317 0.000913
v 0.600582 1.007056 0.000913
v 0.723217 0.484796 0.000913
v 0.348556 2.051577 0.069495
v 0.468835 1.529317 0.093420
v 0.589114 1.007056 0.117345
v 0.709394 0.484796 0.141270
v 0.328551 2.051577 0.135442
v 0.441852 1.529317 0.182373
v 0.555152 1.007056 0.229303
v 0.668453 0.484796 0.276234
v 0.296065 2.051577 0.196219
v 0.398033 1.529317 0.264352
v 0.500001 1.007056 0.332484
v 0.601968 0.484796 0.400617
v 0.252346 2.051577 0.249490
v 0.339063 1.529317 0.336207
v 0.425779 1.007056 0.422924
v 0.512496 0.484796 0.509640
v 0.199075 2.051577 0.293209
v 0.267207 1.529317 0.395177
v 0.335340 1.007056 0.497145
v 0.403473 0.484796 0.599113
v 0.138298 2.051577 0.325695
v 0.185228 1.529317 0.438996
v 0.232159 1.007056 0.552297
v 0.279090 0.484796 0.665597
v 0.072351 2.051577 0.345700
v 0.096276 1.529317 0.465979
v 0.120201 1.007056 0.586259
v 0.144126 0.484796 0.706538
v 0.003768 2.051577 0.352455
v 0.003768 1.529317 0.475090
v 0.003768 1.007056 0.597726
v 0.003768 0.484796 0.720362
v -0.064814 2.051577 0.345700
v -0.088739 1.529317 0.465979
v -0.112664 1.007056 0.586258
v -0.136589 0.484796 0.706538
v -0.130761 2.051577 0.325695
v -0.177692 1.529317 0.438996
v -0.224622 1.007056 0.552296
v -0.271553 0.484796 0.665597
v -0.191538 2.051577 0.293209
v -0.259671 1.529317 0.395177
v -0.327804 1.007056 0.497145
v -0.395936 0.484796 0.599113
v -0.244809 2.051577 0.249490
v -0.331526 1.529317 0.336207
v -0.418243 1.007056 0.422923
v -0.504959 0.484796 0.509640
v -0.288528 2.051577 0.196219
v -0.390496 1.529317 0.264351
v -0.492464 1.007056 0.332484
v -0.594432 0.484796 0.400617
v -0.321014 2.051577 0.135442
v -0.434315 1.529317 0.182372
v -0.547615 1.007056 0.229303
v -0.660916 0.484796 0.276233
v -0.341019 2.051577 0.069495
v -0.461298 1.529317 0.093420
v -0.581577 1.007056 0.117345
v -0.701857 0.484796 0.141270
v -0.347774 2.051577 0.000912
v -0.470409 1.529317 0.000912
v -0.593045 1.007056 0.000912
v -0.715681 0.484796 0.000912
v -0.341019 2.051577 -0.067670
v -0.461298 1.529317 -0.091595
v -0.581577 1.007056 -0.115520
v -0.701857 0.484796 -0.139446
v -0.321014 2.051577 -0.133617
v -0.434315 1.529317 -0.180548
v -0.547615 1.007056 -0.227479
v -0.660916 0.484796 -0.274409
v -0.288528 2.051577 -0.194394
v -0.390496 1.529317 -0.262527
v -0.492463 1.007056 -0.330660
v -0.594431 0.484796 -0.398793
v -0.244809 2.051577 -0.247665
v -0.331525 1.529317 -0.334382
v -0.418242 1.007056 -0.421099
v -0.504958 0.484796 -0.507815
v -0.191537 2.051577 -0.291384
v -0.259670 1.529317 -0.393352
v -0.327803 1.007056 -0.495320
v -0.395935 0.484796 -0.597288
v -0.130760 2.051577 -0.323870
v -0.177691 1.529317 -0.437171
v -0.224621 1.007056 -0.550471
v -0.271552 0.484796 -0.663772
v -0.064813 2.051577 -0.343875
v -0.088738 1.529317 -0.464154
v -0.112663 1.007056 -0.584433
v -0.136588 0.484796 -0.704713
v 0.688583 -0.059163 0.458491
v 0.688583 0.059163 0.458491
v 0.003768 -0.059163 -0.822706
v 0.003768 0.059163 -0.822706
v -0.156910 -0.059163 -0.806881
v -0.156910 0.059163 -0.806881
v -0.311416 -0.059163 -0.760013
v -0.311416 0.059163 -0.760013
v -0.757157 -0.059163 0.316098
v -0.757157 0.059163 0.316098
v -0.681046 -0.059163 0.458491
v -0.681046 0.059163 0.458491
v -0.804025 -0.059163 0.161592
v -0.804025 0.059163 0.161592
v -0.578619 -0.059163 0.583299
v -0.578619 0.059163 0.583299
v -0.156912 -0.059163 0.808706
v -0.156912 0.059163 0.808706
v 0.003768 -0.059163 0.824532
v 0.003768 0.059163 0.824532
v -0.311417 -0.059163 0.761838
v -0.311417 0.059163 0.761837
v 0.811562 -0.059163 -0.159767
v 0.811562 0.059163 -0.159767
v 0.461347 -0.059163 -0.683902
v 0.461347 0.059163 -0.683902
v 0.827388 -0.059163 0.000913
v 0.827388 0.059163 0.000913
v 0.764693 -0.059163 -0.314273
v 0.764693 0.059163 -0.314273
v 0.164448 -0.059163 0.808706
v 0.164448 0.059163 0.808706
v -0.578618 -0.059163 -0.581475
v -0.578618 0.059163 -0.581475
v -0.453809 -0.059163 -0.683902
v -0.453809 0.059163 -0.683902
v -0.681045 -0.059163 -0.456666
v -0.681045 0.059163 -0.456666
v 0.811562 -0.059163 0.161593
v 0.811562 0.059163 0.161593
v 0.461347 -0.059163 0.685727
v 0.461347 0.059163 0.685727
v 0.586155 -0.059163 0.583300
v 0.586155 0.059163 0.583300
v 0.764693 -0.059163 0.316098
v 0.764693 0.059163 0.316098
v -0.819851 -0.059163 0.000912
v -0.819851 0.059163 0.000912
v -0.453810 -0.059163 0.685727
v -0.453810 0.059163 0.685727
v -0.804025 -0.059163 -0.159768
v -0.804025 0.059163 -0.159768
v 0.586155 -0.059163 -0.581474
v 0.586155 0.059163 -0.581474
v 0.318954 -0.059163 0.761838
v 0.318954 0.059163 0.761838
v 0.688583 -0.059163 -0.456666
v 0.688583 0.059163 -0.456666
v -0.757156 -0.059163 -0.314273
v -0.757156 0.059163 -0.314273
v 0.318954 -0.059163 -0.760012
v 0.318954 0.059163 -0.760012
v 0.164448 -0.059163 -0.806881
v 0.164448 0.059163 -0.806881
v 0.703582 -0.059163 -1.000000
v 1.000000 -0.059163 -0.703582
v 0.851791 -0.059163 -0.960287
v 0.960288 -0.059163 -0.851791
v 1.000000 -0.059163 0.703582
v 0.703582 -0.059163 1.000000
v 0.949535 -0.059163 0.707909
v 0.960288 -0.059163 0.851791
v 0.851791 -0.059163 0.960288
v -0.703582 -0.059163 1.000000
v -1.000000 -0.059163 0.703582
v -0.947400 -0.059163 0.708286
v -0.851791 -0.059163 0.960287
v -0.960288 -0.059163 0.851791
v -1.000000 -0.059163 -0.703583
v -0.703582 -0.059163 -1.000000
v -0.960287 -0.059163 -0.851791
v -0.851791 -0.059163 -0.960288
v 1.000000 0.059163 -0.703582
v 0.703583 0.059163 -1.000000
v 0.960288 0.059163 -0.851790
v 0.851792 0.059163 -0.960287
v 0.703582 0.059163 1.000000
v 1.000000 0.059163 0.703583
v 0.949535 0.059163 0.707910
v 0.851791 0.059163 0.960288
v 0.960287 0.059163 0.851792
v -1.000000 0.059163 0.703582
v -0.703582 0.059163 1.000000
v -0.947400 0.059163 0.708286
v -0.960288 0.059163 0.851791
v -0.851791 0.059163 0.960287
v -0.703582 0.059163 -1.000000
v -1.000000 0.059163 -0.703582
v -0.851791 0.059163 -0.960287
v -0.960288 0.059163 -0.851791
vn 0.0954 0.2276 -0.9691
vn 0.2827 0.2276 -0.9318
vn 0.4590 0.2276 -0.8588
vn 0.6177 0.2276 -0.7527
vn 0.7527 0.2276 -0.6177
vn 0.8588 0.2276 -0.4590
vn 0.9318 0.2276 -0.2827
vn 0.9691 0.2276 -0.0954
vn 0.9691 0.2276 0.0954
vn 0.9318 0.2276 0.2827
vn 0.8588 0.2276 0.4590
vn 0.7527 0.2276 0.6177
vn 0.6178 0.2276 0.7527
vn 0.4590 0.2276 0.8588
vn 0.2827 0.2276 0.9318
vn 0.0954 0.2276 0.9691
vn -0.0954 0.2276 0.9691
vn -0.2827 0.2276 0.9318
vn -0.4590 0.2276 0.8588
vn -0.6178 0.2276 0.7527
vn -0.7527 0.2276 0.6177
vn -0.8588 0.2276 0.4590
vn -0.9318 0.2276 0.2827
vn -0.9691 0.2276 0.0954
vn -0.9691 0.2276 -0.0954
vn -0.9318 0.2276 -0.2827
vn -0.8588 0.2276 -0.4590
vn -0.7527 0.2276 -0.6178
vn -0.6177 0.2276 -0.7527
vn -0.4590 0.2276 -0.8588
vn 0.0000 1.0000 0.0000
vn -0.2827 0.2276 -0.9318
vn -0.0954 0.2276 -0.9691
vn 0.6177 0.2276 0.7527
vn 0.7527 0.2276 -0.6178
vn 0.6178 0.2276 -0.7527
vn 0.0000 0.0000 -1.0000
vn 0.0000 -1.0000 0.0000
vn -1.0000 -0.0000 -0.0000
vn -0.9952 0.0000 -0.0980
vn -0.0000 -0.0000 1.0000
vn -0.7730 -0.0000 -0.6344
vn -0.8819 -0.0000 -0.4714
vn 0.9952 0.0000 0.0980
vn -0.9569 -0.0000 0.2903
vn -0.9952 -0.0000 0.0980
vn -0.7730 -0.0000 0.6344
vn 0.0980 -0.0000 0.9952
vn 0.0980 0.0000 -0.9952
vn 0.8819 -0.0000 0.4714
vn -0.0980 0.0000 -0.9952
vn 0.2903 -0.0000 0.9569
vn -0.6344 -0.0000 0.7730
vn 0.4714 -0.0000 -0.8819
vn -0.4714 0.0000 0.8819
vn -0.6344 0.0000 -0.7730
vn 0.6344 0.0000 0.7730
vn 0.9569 0.0000 0.2903
vn -0.4714 -0.0000 -0.8819
vn 0.6344 0.0000 -0.7730
vn 0.8819 0.0000 -0.4714
vn -0.0980 0.0000 0.9952
vn -0.8819 0.0000 0.4714
vn 0.9952 -0.0000 -0.0980
vn -0.9569 -0.0000 -0.2903
vn 0.2903 -0.0000 -0.9569
vn 0.4714 -0.0000 0.8819
vn -0.2903 0.0000 0.9569
vn -0.2903 -0.0000 -0.9569
vn 0.9569 -0.0000 -0.2903
vn 0.7730 -0.0000 0.6344
vn 0.7730 0.0000 -0.6344
vn 0.2588 0.0000 -0.9659
vn 0.7071 0.0000 -0.7071
vn 0.9659 -0.0000 -0.2588
vn 0.9659 0.0000 0.2588
vn 0.7071 0.0000 0.7071
vn 0.2588 -0.0000 0.9659
vn -0.2588 0.0000 0.9659
vn -0.7071 -0.0000 0.7071
vn -0.9659 -0.0000 0.2588
vn -0.9659 -0.0000 -0.2588
vn -0.7071 0.0000 -0.7071
vn -0.2588 0.0000 -0.9659
vn 1.0000 0.0000 0.0000
vn -0.7527 0.2276 0.6178
usemtl Material.001
s off
f 68//1 2//1 4//1 69//1
f 69//2 4//2 6//2 73//2
f 73//3 6//3 8//3 77//3
f 77//4 8//4 10//4 81//4
f 81//5 10//5 12//5 85//5
f 85//6 12//6 14//6 89//6
f 89//7 14//7 16//7 93//7
f 93//8 16//8 18//8 97//8
f 97//9 18//9 20//9 101//9
f 101//10 20//10 22//10 105//10
f 105//11 22//11 24//11 109//11
f 109//12 24//12 26//12 113//12
f 113//13 26//13 28//13 117//13
f 117//14 28//14 30//14 121//14
f 121//15 30//15 32//15 125//15
f 125//16 32//16 34//16 129//16
f 129//17 34//17 36//17 133//17
f 133//18 36//18 38//18 137//18
f 137//19 38//19 40//19 141//19
f 141//20 40//20 42//20 145//20
f 145//21 42//21 44//21 149//21
f 149//22 44//22 46//22 153//22
f 153//23 46//23 48//23 157//23
f 157//24 48//24 50//24 161//24
f 161//25 50//25 52//25 165//25
f 165//26 52//26 54//26 169//26
f 169//27 54//27 56//27 173//27
f 173//28 56//28 58//28 177//28
f 177//29 58//29 60//29 181//29
f 181//30 60//30 62//30 185//30
f 4//31 2//31 64//31 62//31 60//31 58//31 56//31 54//31 52//31 50//31 48//31 46//31 44//31 42//31 40//31 38//31 36//31 34//31 32//31 30//31 28//31 26//31 24//31 22//31 20//31 18//31 16//31 14//31 12//31 10//31 8//31 6//31
f 185//32 62//32 64//32 189//32
f 189//33 64//33 2//33 68//33
f 63//33 192//33 65//33 1//33
f 191//33 190//33 67//33 66//33
f 61//32 188//32 192//32 63//32
f 187//32 186//32 190//32 191//32
f 59//30 184//30 188//30 61//30
f 183//30 182//30 186//30 187//30
f 57//29 180//29 184//29 59//29
f 179//29 178//29 182//29 183//29
f 55//28 176//28 180//28 57//28
f 175//28 174//28 178//28 179//28
f 53//27 172//27 176//27 55//27
f 171//27 170//27 174//27 175//27
f 51//26 168//26 172//26 53//26
f 167//26 166//26 170//26 171//26
f 49//25 164//25 168//25 51//25
f 163//25 162//25 166//25 167//25
f 47//24 160//24 164//24 49//24
f 159//24 158//24 162//24 163//24
f 45//23 156//23 160//23 47//23
f 155//23 154//23 158//23 159//23
f 43//22 152//22 156//22 45//22
f 151//22 150//22 154//22 155//22
f 41//21 148//21 152//21 43//21
f 147//21 146//21 150//21 151//21
f 39//20 144//20 148//20 41//20
f 143//20 142//20 146//20 147//20
f 37//19 140//19 144//19 39//19
f 139//19 138//19 142//19 143//19
f 35//18 136//18 140//18 37//18
f 135//18 134//18 138//18 139//18
f 33//17 132//17 136//17 35//17
f 131//17 130//17 134//17 135//17
f 31//16 128//16 132//16 33//16
f 127//16 126//16 130//16 131//16
f 29//15 124//15 128//15 31//15
f 123//15 122//15 126//15 127//15
f 27//14 120//14 124//14 29//14
f 119//14 118//14 122//14 123//14
f 25//13 116//13 120//13 27//13
f 115//34 114//34 118//34 119//34
f 23//12 112//12 116//12 25//12
f 111//12 110//12 114//12 115//12
f 21//11 108//11 112//11 23//11
f 107//11 106//11 110//11 111//11
f 19//10 104//10 108//10 21//10
f 103//10 102//10 106//10 107//10
f 17//9 100//9 104//9 19//9
f 99//9 98//9 102//9 103//9
f 15//8 96//8 100//8 17//8
f 95//8 94//8 98//8 99//8
f 13//7 92//7 96//7 15//7
f 91//7 90//7 94//7 95//7
f 11//6 88//6 92//6 13//6
f 87//6 86//6 90//6 91//6
f 9//35 84//35 88//35 11//35
f 83//35 82//35 86//35 87//35
f 7//36 80//36 84//36 9//36
f 79//4 78//4 82//4 83//4
f 5//3 76//3 80//3 7//3
f 75//3 74//3 78//3 79//3
f 3//2 72//2 76//2 5//2
f 71//2 70//2 74//2 75//2
f 1//1 65//1 72//1 3//1
f 66//1 67//1 70//1 71//1
f 276//37 257//37 272//37 289//37
f 279//31 281//31 220//31 232//31 238//31 194//31 236//31 234//31 248//31 224//31 212//31 210//31 214//31 242//31 208//31 204//31 202//31 206//31 240//31 286//31 285//31
f 257//38 259//38 260//38 258//38 261//38 263//38 219//38 215//38 221//38 249//38 245//38 217//38 253//38 255//38 195//38 197//38 199//38 227//38 225//38 229//38 251//38 243//38 239//38 268//38 267//38 271//38 273//38 274//38 272//38
f 267//39 284//39 290//39 271//39
f 275//31 277//31 278//31 276//31 289//31 291//31 292//31 290//31 284//31 286//31 240//31 244//31 252//31 230//31 226//31 228//31 200//31 198//31 196//31 256//31 254//31 218//31 246//31 250//31 222//31 216//31 220//31 281//31 280//31
f 266//38 268//38 239//38 205//38 201//38 203//38 207//38 241//38 213//38 209//38 211//38 223//38 247//38 233//38 235//38 193//38 237//38 231//38 219//38 263//38 262//38
f 231//40 232//40 220//40 219//40
f 262//41 279//41 285//41 266//41
f 235//42 236//42 194//42 193//42
f 193//43 194//43 238//43 237//43
f 243//44 244//44 240//44 239//44
f 215//45 216//45 222//45 221//45
f 219//46 220//46 216//46 215//46
f 249//47 250//47 246//47 245//47
f 195//48 196//48 198//48 197//48
f 209//49 210//49 212//49 211//49
f 229//50 230//50 252//50 251//50
f 211//51 212//51 224//51 223//51
f 197//52 198//52 200//52 199//52
f 245//53 246//53 218//53 217//53
f 241//54 242//54 214//54 213//54
f 217//55 218//55 254//55 253//55
f 233//56 234//56 236//56 235//56
f 227//57 228//57 226//57 225//57
f 251//58 252//58 244//58 243//58
f 247//59 248//59 234//59 233//59
f 207//60 208//60 242//60 241//60
f 201//61 202//61 204//61 203//61
f 255//62 256//62 196//62 195//62
f 221//63 222//63 250//63 249//63
f 239//64 240//64 206//64 205//64
f 237//65 238//65 232//65 231//65
f 213//66 214//66 210//66 209//66
f 199//67 200//67 228//67 227//67
f 253//68 254//68 256//68 255//68
f 223//69 224//69 248//69 247//69
f 205//70 206//70 202//70 201//70
f 225//71 226//71 230//71 229//71
f 203//72 204//72 208//72 207//72
f 261//38 264//38 263//38
f 264//38 265//38 263//38
f 265//38 262//38 263//38
f 266//38 269//38 268//38
f 269//38 270//38 268//38
f 270//38 267//38 268//38
f 279//31 282//31 281//31
f 282//31 283//31 281//31
f 283//31 280//31 281//31
f 284//31 287//31 286//31
f 287//31 288//31 286//31
f 288//31 285//31 286//31
f 257//73 276//73 278//73 259//73
f 259//74 278//74 277//74 260//74
f 260//75 277//75 275//75 258//75
f 261//76 280//76 283//76 264//76
f 264//77 283//77 282//77 265//77
f 265//78 282//78 279//78 262//78
f 266//79 285//79 288//79 269//79
f 269//80 288//80 287//80 270//80
f 270//81 287//81 284//81 267//81
f 271//82 290//82 292//82 273//82
f 273//83 292//83 291//83 274//83
f 274//84 291//84 289//84 272//84
f 258//85 275//85 280//85 261//85
usemtl Material.002
f 192//33 191//33 66//33 65//33
f 190//33 189//33 68//33 67//33
f 188//32 187//32 191//32 192//32
f 186//32 185//32 189//32 190//32
f 184//30 183//30 187//30 188//30
f 182//30 181//30 185//30 186//30
f 180//29 179//29 183//29 184//29
f 178//29 177//29 181//29 182//29
f 176//28 175//28 179//28 180//28
f 174//28 173//28 177//28 178//28
f 172//27 171//27 175//27 176//27
f 170//27 169//27 173//27 174//27
f 168//26 167//26 171//26 172//26
f 166//26 165//26 169//26 170//26
f 164//25 163//25 167//25 168//25
f 162//25 161//25 165//25 166//25
f 160//24 159//24 163//24 164//24
f 158//24 157//24 161//24 162//24
f 156//23 155//23 159//23 160//23
f 154//23 153//23 157//23 158//23
f 152//22 151//22 155//22 156//22
f 150//22 149//22 153//22 154//22
f 148//21 147//21 151//21 152//21
f 146//86 145//86 149//86 150//86
f 144//20 143//20 147//20 148//20
f 142//20 141//20 145//20 146//20
f 140//19 139//19 143//19 144//19
f 138//19 137//19 141//19 142//19
f 136//18 135//18 139//18 140//18
f 134//18 133//18 137//18 138//18
f 132//17 131//17 135//17 136//17
f 130//17 129//17 133//17 134//17
f 128//16 127//16 131//16 132//16
f 126//16 125//16 129//16 130//16
f 124//15 123//15 127//15 128//15
f 122//15 121//15 125//15 126//15
f 120//14 119//14 123//14 124//14
f 118//14 117//14 121//14 122//14
f 116//13 115//13 119//13 120//13
f 114//34 113//34 117//34 118//34
f 112//12 111//12 115//12 116//12
f 110//12 109//12 113//12 114//12
f 108//11 107//11 111//11 112//11
f 106//11 105//11 109//11 110//11
f 104//10 103//10 107//10 108//10
f 102//10 101//10 105//10 106//10
f 100//9 99//9 103//9 104//9
f 98//9 97//9 101//9 102//9
f 96//8 95//8 99//8 100//8
f 94//8 93//8 97//8 98//8
f 92//7 91//7 95//7 96//7
f 90//7 89//7 93//7 94//7
f 88//6 87//6 91//6 92//6
f 86//6 85//6 89//6 90//6
f 84//35 83//35 87//35 88//35
f 82//35 81//35 85//35 86//35
f 80//4 79//4 83//4 84//4
f 78//36 77//36 81//36 82//36
f 76//3 75//3 79//3 80//3
f 74//3 73//3 77//3 78//3
f 72//2 71//2 75//2 76//2
f 70//2 69//2 73//2 74//2
f 65//1 66//1 71//1 72//1
f 67//1 68//1 69//1 70//1
